<?xml version="1.0" encoding="UTF-8" standalone="no"?>
<svg width="491px" height="226px" viewBox="0 0 491 226" version="1.1" xmlns="http://www.w3.org/2000/svg" xmlns:xlink="http://www.w3.org/1999/xlink">
    <!-- Generator: Sketch 47.1 (45422) - http://www.bohemiancoding.com/sketch -->
    <title>Little Jamaica</title>
    <desc>Created with Sketch.</desc>
    <defs></defs>
    <g id="Page-1" stroke="none" stroke-width="1" fill="none" fill-rule="evenodd">
        <path d="M95.9649999,93.8 C95.9649999,96.5600138 95.7250023,98.9599898 95.2449999,101 L44.8449999,101 C44.3649975,98.9599898 44.1249999,96.5600138 44.1249999,93.8 C44.1249999,90.9199856 44.3649975,88.5200096 44.8449999,86.6 C44.3649975,84.5599898 44.1249999,82.1600138 44.1249999,79.4 C44.1249999,76.5199856 44.3649975,74.1200096 44.8449999,72.2 C44.3649975,70.1599898 44.1249999,67.7600138 44.1249999,65 C44.1249999,62.1199856 44.3649975,59.7200096 44.8449999,57.8 C44.3649975,55.7599898 44.1249999,53.3600138 44.1249999,50.6 C44.1249999,47.7199856 44.3649975,45.3200096 44.8449999,43.4 C44.3649975,41.3599898 44.1249999,38.9600138 44.1249999,36.2 C44.1249999,33.3199856 44.3649975,30.9200096 44.8449999,29 C44.3649975,26.9599898 44.1249999,24.5600138 44.1249999,21.8 C44.1249999,18.9199856 44.3649975,16.5200096 44.8449999,14.6 C44.3649975,12.5599898 44.1249999,10.1600138 44.1249999,7.4 C44.1249999,4.5199856 44.3649975,2.1200096 44.8449999,0.2 L59.2449999,0.2 C59.7250023,2.1200096 59.9649999,4.5199856 59.9649999,7.4 C59.9649999,10.1600138 59.7250023,12.5599898 59.2449999,14.6 C59.7250023,16.5200096 59.9649999,18.9199856 59.9649999,21.8 C59.9649999,24.5600138 59.7250023,26.9599898 59.2449999,29 C59.7250023,30.9200096 59.9649999,33.3199856 59.9649999,36.2 C59.9649999,38.9600138 59.7250023,41.3599898 59.2449999,43.4 C59.7250023,45.3200096 59.9649999,47.7199856 59.9649999,50.6 C59.9649999,53.3600138 59.7250023,55.7599898 59.2449999,57.8 C59.7250023,59.7200096 59.9649999,62.1199856 59.9649999,65 C59.9649999,67.7600138 59.7250023,70.1599898 59.2449999,72.2 C59.7250023,74.1200096 59.9649999,76.5199856 59.9649999,79.4 C59.9649999,82.1600138 59.7250023,84.5599898 59.2449999,86.6 L95.2449999,86.6 C95.7250023,88.5200096 95.9649999,90.9199856 95.9649999,93.8 Z M130.975,14.6 C130.494998,12.5599898 130.255,10.1600138 130.255,7.4 C130.255,4.5199856 130.494998,2.1200096 130.975,0.2 L145.375,0.2 C145.855002,2.1200096 146.095,4.5199856 146.095,7.4 C146.095,10.1600138 145.855002,12.5599898 145.375,14.6 L130.975,14.6 Z M160.495,93.8 C160.495,96.5600138 160.255002,98.9599898 159.775,101 L116.575,101 C116.094998,98.9599898 115.855,96.5600138 115.855,93.8 C115.855,90.9199856 116.094998,88.5200096 116.575,86.6 L130.975,86.6 C130.494998,84.5599898 130.255,82.1600138 130.255,79.4 C130.255,76.5199856 130.494998,74.1200096 130.975,72.2 C130.494998,70.1599898 130.255,67.7600138 130.255,65 C130.255,62.1199856 130.494998,59.7200096 130.975,57.8 C130.494998,55.7599898 130.255,53.3600138 130.255,50.6 C130.255,47.7199856 130.494998,45.3200096 130.975,43.4 L120.175,43.4 C119.694998,41.3599898 119.455,38.9600138 119.455,36.2 C119.455,33.3199856 119.694998,30.9200096 120.175,29 L145.375,29 C145.855002,30.9200096 146.095,33.3199856 146.095,36.2 C146.095,38.9600138 145.855002,41.3599898 145.375,43.4 C145.855002,45.3200096 146.095,47.7199856 146.095,50.6 C146.095,53.3600138 145.855002,55.7599898 145.375,57.8 C145.855002,59.7200096 146.095,62.1199856 146.095,65 C146.095,67.7600138 145.855002,70.1599898 145.375,72.2 C145.855002,74.1200096 146.095,76.5199856 146.095,79.4 C146.095,82.1600138 145.855002,84.5599898 145.375,86.6 L159.775,86.6 C160.255002,88.5200096 160.495,90.9199856 160.495,93.8 Z M231.505,86.6 C231.985002,88.5200096 232.225,90.9199856 232.225,93.8 C232.225,96.5600138 231.985002,98.9599898 231.505,101 L202.705,101 C202.224998,98.9599898 201.985,96.5600138 201.985,93.8 C201.985,90.9199856 202.224998,88.5200096 202.705,86.6 L195.505,86.6 C195.024998,84.5599898 194.785,82.1600138 194.785,79.4 C194.785,76.5199856 195.024998,74.1200096 195.505,72.2 C195.024998,70.1599898 194.785,67.7600138 194.785,65 C194.785,62.1199856 195.024998,59.7200096 195.505,57.8 C195.024998,55.7599898 194.785,53.3600138 194.785,50.6 C194.785,47.7199856 195.024998,45.3200096 195.505,43.4 L181.105,43.4 C180.624998,41.3599898 180.385,38.9600138 180.385,36.2 C180.385,33.3199856 180.624998,30.9200096 181.105,29 L195.505,29 C195.024998,26.9599898 194.785,24.5600138 194.785,21.8 C194.785,18.9199856 195.024998,16.5200096 195.505,14.6 C195.024998,12.5599898 194.785,10.1600138 194.785,7.4 C194.785,4.5199856 195.024998,2.1200096 195.505,0.2 L209.905,0.2 C210.385002,2.1200096 210.625,4.5199856 210.625,7.4 C210.625,10.1600138 210.385002,12.5599898 209.905,14.6 C210.385002,16.5200096 210.625,18.9199856 210.625,21.8 C210.625,24.5600138 210.385002,26.9599898 209.905,29 L231.505,29 C231.985002,30.9200096 232.225,33.3199856 232.225,36.2 C232.225,38.9600138 231.985002,41.3599898 231.505,43.4 L209.905,43.4 C210.385002,45.3200096 210.625,47.7199856 210.625,50.6 C210.625,53.3600138 210.385002,55.7599898 209.905,57.8 C210.385002,59.7200096 210.625,62.1199856 210.625,65 C210.625,67.7600138 210.385002,70.1599898 209.905,72.2 C210.385002,74.1200096 210.625,76.5199856 210.625,79.4 C210.625,82.1600138 210.385002,84.5599898 209.905,86.6 L231.505,86.6 Z M303.235,86.6 C303.715002,88.5200096 303.955,90.9199856 303.955,93.8 C303.955,96.5600138 303.715002,98.9599898 303.235,101 L274.435,101 C273.954998,98.9599898 273.715,96.5600138 273.715,93.8 C273.715,90.9199856 273.954998,88.5200096 274.435,86.6 L267.235,86.6 C266.754998,84.5599898 266.515,82.1600138 266.515,79.4 C266.515,76.5199856 266.754998,74.1200096 267.235,72.2 C266.754998,70.1599898 266.515,67.7600138 266.515,65 C266.515,62.1199856 266.754998,59.7200096 267.235,57.8 C266.754998,55.7599898 266.515,53.3600138 266.515,50.6 C266.515,47.7199856 266.754998,45.3200096 267.235,43.4 L252.835,43.4 C252.354998,41.3599898 252.115,38.9600138 252.115,36.2 C252.115,33.3199856 252.354998,30.9200096 252.835,29 L267.235,29 C266.754998,26.9599898 266.515,24.5600138 266.515,21.8 C266.515,18.9199856 266.754998,16.5200096 267.235,14.6 C266.754998,12.5599898 266.515,10.1600138 266.515,7.4 C266.515,4.5199856 266.754998,2.1200096 267.235,0.2 L281.635,0.2 C282.115002,2.1200096 282.355,4.5199856 282.355,7.4 C282.355,10.1600138 282.115002,12.5599898 281.635,14.6 C282.115002,16.5200096 282.355,18.9199856 282.355,21.8 C282.355,24.5600138 282.115002,26.9599898 281.635,29 L303.235,29 C303.715002,30.9200096 303.955,33.3199856 303.955,36.2 C303.955,38.9600138 303.715002,41.3599898 303.235,43.4 L281.635,43.4 C282.115002,45.3200096 282.355,47.7199856 282.355,50.6 C282.355,53.3600138 282.115002,55.7599898 281.635,57.8 C282.115002,59.7200096 282.355,62.1199856 282.355,65 C282.355,67.7600138 282.115002,70.1599898 281.635,72.2 C282.115002,74.1200096 282.355,76.5199856 282.355,79.4 C282.355,82.1600138 282.115002,84.5599898 281.635,86.6 L303.235,86.6 Z M375.685,93.8 C375.685,96.5600138 375.445002,98.9599898 374.965,101 L331.765,101 C331.284998,98.9599898 331.045,96.5600138 331.045,93.8 C331.045,90.9199856 331.284998,88.5200096 331.765,86.6 L346.165,86.6 C345.684998,84.5599898 345.445,82.1600138 345.445,79.4 C345.445,76.5199856 345.684998,74.1200096 346.165,72.2 C345.684998,70.1599898 345.445,67.7600138 345.445,65 C345.445,62.1199856 345.684998,59.7200096 346.165,57.8 C345.684998,55.7599898 345.445,53.3600138 345.445,50.6 C345.445,47.7199856 345.684998,45.3200096 346.165,43.4 C345.684998,41.3599898 345.445,38.9600138 345.445,36.2 C345.445,33.3199856 345.684998,30.9200096 346.165,29 C345.684998,26.9599898 345.445,24.5600138 345.445,21.8 C345.445,18.9199856 345.684998,16.5200096 346.165,14.6 L335.365,14.6 C334.884998,12.5599898 334.645,10.1600138 334.645,7.4 C334.645,4.5199856 334.884998,2.1200096 335.365,0.2 L360.565,0.2 C361.045002,2.1200096 361.285,4.5199856 361.285,7.4 C361.285,10.1600138 361.045002,12.5599898 360.565,14.6 C361.045002,16.5200096 361.285,18.9199856 361.285,21.8 C361.285,24.5600138 361.045002,26.9599898 360.565,29 C361.045002,30.9200096 361.285,33.3199856 361.285,36.2 C361.285,38.9600138 361.045002,41.3599898 360.565,43.4 C361.045002,45.3200096 361.285,47.7199856 361.285,50.6 C361.285,53.3600138 361.045002,55.7599898 360.565,57.8 C361.045002,59.7200096 361.285,62.1199856 361.285,65 C361.285,67.7600138 361.045002,70.1599898 360.565,72.2 C361.045002,74.1200096 361.285,76.5199856 361.285,79.4 C361.285,82.1600138 361.045002,84.5599898 360.565,86.6 L374.965,86.6 C375.445002,88.5200096 375.685,90.9199856 375.685,93.8 Z M453.895,57.8 C454.375002,59.7200096 454.615,62.1199856 454.615,65 C454.615,67.7600138 454.375002,70.1599898 453.895,72.2 L416.095,72.2 C416.575002,74.1200096 416.815,76.5199856 416.815,79.4 C416.815,82.1600138 416.575002,84.5599898 416.095,86.6 L446.695,86.6 C447.175002,88.5200096 447.415,90.9199856 447.415,93.8 C447.415,96.5600138 447.175002,98.9599898 446.695,101 L410.695,101 C410.214998,98.9599898 409.975,96.5600138 409.975,93.8 C409.975,90.9199856 410.214998,88.5200096 410.695,86.6 L401.695,86.6 C401.214998,84.5599898 400.975,82.1600138 400.975,79.4 C400.975,76.5199856 401.214998,74.1200096 401.695,72.2 L396.295,72.2 C395.814998,70.1599898 395.575,67.7600138 395.575,65 C395.575,62.1199856 395.814998,59.7200096 396.295,57.8 L401.695,57.8 C401.214998,55.7599898 400.975,53.3600138 400.975,50.6 C400.975,47.7199856 401.214998,45.3200096 401.695,43.4 L410.695,43.4 C410.214998,41.3599898 409.975,38.9600138 409.975,36.2 C409.975,33.3199856 410.214998,30.9200096 410.695,29 L446.695,29 C447.175002,30.9200096 447.415,33.3199856 447.415,36.2 C447.415,38.9600138 447.175002,41.3599898 446.695,43.4 L453.895,43.4 C454.375002,45.3200096 454.615,47.7199856 454.615,50.6 C454.615,53.3600138 454.375002,55.7599898 453.895,57.8 Z M438.775,50.6 C438.775,47.7199856 439.014998,45.3200096 439.495,43.4 L416.095,43.4 C416.575002,45.3200096 416.815,47.7199856 416.815,50.6 C416.815,53.3600138 416.575002,55.7599898 416.095,57.8 L439.495,57.8 C439.014998,55.7599898 438.775,53.3600138 438.775,50.6 Z M55.6449999,139.6 L44.8449999,139.6 C45.3250023,141.52001 45.5649999,143.919986 45.5649999,146.8 C45.5649999,149.560014 45.3250023,151.95999 44.8449999,154 C45.3250023,155.92001 45.5649999,158.319986 45.5649999,161.2 C45.5649999,163.960014 45.3250023,166.35999 44.8449999,168.4 C45.3250023,170.32001 45.5649999,172.719986 45.5649999,175.6 C45.5649999,178.360014 45.3250023,180.75999 44.8449999,182.8 C45.3250023,184.72001 45.5649999,187.119986 45.5649999,190 C45.5649999,192.760014 45.3250023,195.15999 44.8449999,197.2 C45.3250023,199.12001 45.5649999,201.519986 45.5649999,204.4 C45.5649999,207.160014 45.3250023,209.55999 44.8449999,211.6 L37.6449999,211.6 C38.1250023,213.52001 38.3649999,215.919986 38.3649999,218.8 C38.3649999,221.560014 38.1250023,223.95999 37.6449999,226 L8.84499993,226 C8.36499753,223.95999 8.12499993,221.560014 8.12499993,218.8 C8.12499993,215.919986 8.36499753,213.52001 8.84499993,211.6 L1.64499993,211.6 C1.16499753,209.55999 0.924999933,207.160014 0.924999933,204.4 C0.924999933,201.519986 1.16499753,199.12001 1.64499993,197.2 L16.0449999,197.2 C16.5250023,199.12001 16.7649999,201.519986 16.7649999,204.4 C16.7649999,207.160014 16.5250023,209.55999 16.0449999,211.6 L30.4449999,211.6 C29.9649975,209.55999 29.7249999,207.160014 29.7249999,204.4 C29.7249999,201.519986 29.9649975,199.12001 30.4449999,197.2 C29.9649975,195.15999 29.7249999,192.760014 29.7249999,190 C29.7249999,187.119986 29.9649975,184.72001 30.4449999,182.8 C29.9649975,180.75999 29.7249999,178.360014 29.7249999,175.6 C29.7249999,172.719986 29.9649975,170.32001 30.4449999,168.4 C29.9649975,166.35999 29.7249999,163.960014 29.7249999,161.2 C29.7249999,158.319986 29.9649975,155.92001 30.4449999,154 C29.9649975,151.95999 29.7249999,149.560014 29.7249999,146.8 C29.7249999,143.919986 29.9649975,141.52001 30.4449999,139.6 L19.6449999,139.6 C19.1649975,137.55999 18.9249999,135.160014 18.9249999,132.4 C18.9249999,129.519986 19.1649975,127.12001 19.6449999,125.2 L55.6449999,125.2 C56.1250023,127.12001 56.3649999,129.519986 56.3649999,132.4 C56.3649999,135.160014 56.1250023,137.55999 55.6449999,139.6 Z M131.695,218.8 C131.695,221.560014 131.455002,223.95999 130.975,226 L116.575,226 C116.094998,223.95999 115.855,221.560014 115.855,218.8 C115.855,215.919986 116.094998,213.52001 116.575,211.6 L109.375,211.6 C108.894998,209.55999 108.655,207.160014 108.655,204.4 C108.655,201.519986 108.894998,199.12001 109.375,197.2 L87.775,197.2 C88.2550024,199.12001 88.495,201.519986 88.495,204.4 C88.495,207.160014 88.2550024,209.55999 87.775,211.6 L109.375,211.6 C109.855002,213.52001 110.095,215.919986 110.095,218.8 C110.095,221.560014 109.855002,223.95999 109.375,226 L80.575,226 C80.0949976,223.95999 79.855,221.560014 79.855,218.8 C79.855,215.919986 80.0949976,213.52001 80.575,211.6 L73.375,211.6 C72.8949976,209.55999 72.655,207.160014 72.655,204.4 C72.655,201.519986 72.8949976,199.12001 73.375,197.2 L80.575,197.2 C80.0949976,195.15999 79.855,192.760014 79.855,190 C79.855,187.119986 80.0949976,184.72001 80.575,182.8 L109.375,182.8 C108.894998,180.75999 108.655,178.360014 108.655,175.6 C108.655,172.719986 108.894998,170.32001 109.375,168.4 L84.175,168.4 C83.6949976,166.35999 83.455,163.960014 83.455,161.2 C83.455,158.319986 83.6949976,155.92001 84.175,154 L116.575,154 C117.055002,155.92001 117.295,158.319986 117.295,161.2 C117.295,163.960014 117.055002,166.35999 116.575,168.4 L123.775,168.4 C124.255002,170.32001 124.495,172.719986 124.495,175.6 C124.495,178.360014 124.255002,180.75999 123.775,182.8 C124.255002,184.72001 124.495,187.119986 124.495,190 C124.495,192.760014 124.255002,195.15999 123.775,197.2 C124.255002,199.12001 124.495,201.519986 124.495,204.4 C124.495,207.160014 124.255002,209.55999 123.775,211.6 L130.975,211.6 C131.455002,213.52001 131.695,215.919986 131.695,218.8 Z M154.105,168.4 L159.505,168.4 C159.985002,170.32001 160.225,172.719986 160.225,175.6 C160.225,178.360014 159.985002,180.75999 159.505,182.8 C159.985002,184.72001 160.225,187.119986 160.225,190 C160.225,192.760014 159.985002,195.15999 159.505,197.2 C159.985002,199.12001 160.225,201.519986 160.225,204.4 C160.225,207.160014 159.985002,209.55999 159.505,211.6 C159.985002,213.52001 160.225,215.919986 160.225,218.8 C160.225,221.560014 159.985002,223.95999 159.505,226 L145.105,226 C144.624998,223.95999 144.385,221.560014 144.385,218.8 C144.385,215.919986 144.624998,213.52001 145.105,211.6 C144.624998,209.55999 144.385,207.160014 144.385,204.4 C144.385,201.519986 144.624998,199.12001 145.105,197.2 C144.624998,195.15999 144.385,192.760014 144.385,190 C144.385,187.119986 144.624998,184.72001 145.105,182.8 C144.624998,180.75999 144.385,178.360014 144.385,175.6 C144.385,172.719986 144.624998,170.32001 145.105,168.4 C144.624998,166.35999 144.385,163.960014 144.385,161.2 C144.385,158.319986 144.624998,155.92001 145.105,154 L154.105,154 C154.585002,155.92001 154.825,158.319986 154.825,161.2 C154.825,163.960014 154.585002,166.35999 154.105,168.4 Z M173.905,168.4 L179.305,168.4 C179.785002,170.32001 180.025,172.719986 180.025,175.6 C180.025,178.360014 179.785002,180.75999 179.305,182.8 C179.785002,184.72001 180.025,187.119986 180.025,190 C180.025,192.760014 179.785002,195.15999 179.305,197.2 C179.785002,199.12001 180.025,201.519986 180.025,204.4 C180.025,207.160014 179.785002,209.55999 179.305,211.6 C179.785002,213.52001 180.025,215.919986 180.025,218.8 C180.025,221.560014 179.785002,223.95999 179.305,226 L168.505,226 C168.024998,223.95999 167.785,221.560014 167.785,218.8 C167.785,215.919986 168.024998,213.52001 168.505,211.6 C168.024998,209.55999 167.785,207.160014 167.785,204.4 C167.785,201.519986 168.024998,199.12001 168.505,197.2 C168.024998,195.15999 167.785,192.760014 167.785,190 C167.785,187.119986 168.024998,184.72001 168.505,182.8 C168.024998,180.75999 167.785,178.360014 167.785,175.6 C167.785,172.719986 168.024998,170.32001 168.505,168.4 L159.505,168.4 C159.024998,166.35999 158.785,163.960014 158.785,161.2 C158.785,158.319986 159.024998,155.92001 159.505,154 L173.905,154 C174.385002,155.92001 174.625,158.319986 174.625,161.2 C174.625,163.960014 174.385002,166.35999 173.905,168.4 Z M203.425,190 C203.425,192.760014 203.185002,195.15999 202.705,197.2 C203.185002,199.12001 203.425,201.519986 203.425,204.4 C203.425,207.160014 203.185002,209.55999 202.705,211.6 C203.185002,213.52001 203.425,215.919986 203.425,218.8 C203.425,221.560014 203.185002,223.95999 202.705,226 L188.305,226 C187.824998,223.95999 187.585,221.560014 187.585,218.8 C187.585,215.919986 187.824998,213.52001 188.305,211.6 C187.824998,209.55999 187.585,207.160014 187.585,204.4 C187.585,201.519986 187.824998,199.12001 188.305,197.2 C187.824998,195.15999 187.585,192.760014 187.585,190 C187.585,187.119986 187.824998,184.72001 188.305,182.8 C187.824998,180.75999 187.585,178.360014 187.585,175.6 C187.585,172.719986 187.824998,170.32001 188.305,168.4 L179.305,168.4 C178.824998,166.35999 178.585,163.960014 178.585,161.2 C178.585,158.319986 178.824998,155.92001 179.305,154 L195.505,154 C195.985002,155.92001 196.225,158.319986 196.225,161.2 C196.225,163.960014 195.985002,166.35999 195.505,168.4 L202.705,168.4 C203.185002,170.32001 203.425,172.719986 203.425,175.6 C203.425,178.360014 203.185002,180.75999 202.705,182.8 C203.185002,184.72001 203.425,187.119986 203.425,190 Z M275.155,218.8 C275.155,221.560014 274.915002,223.95999 274.435,226 L260.035,226 C259.554998,223.95999 259.315,221.560014 259.315,218.8 C259.315,215.919986 259.554998,213.52001 260.035,211.6 L252.835,211.6 C252.354998,209.55999 252.115,207.160014 252.115,204.4 C252.115,201.519986 252.354998,199.12001 252.835,197.2 L231.235,197.2 C231.715002,199.12001 231.955,201.519986 231.955,204.4 C231.955,207.160014 231.715002,209.55999 231.235,211.6 L252.835,211.6 C253.315002,213.52001 253.555,215.919986 253.555,218.8 C253.555,221.560014 253.315002,223.95999 252.835,226 L224.035,226 C223.554998,223.95999 223.315,221.560014 223.315,218.8 C223.315,215.919986 223.554998,213.52001 224.035,211.6 L216.835,211.6 C216.354998,209.55999 216.115,207.160014 216.115,204.4 C216.115,201.519986 216.354998,199.12001 216.835,197.2 L224.035,197.2 C223.554998,195.15999 223.315,192.760014 223.315,190 C223.315,187.119986 223.554998,184.72001 224.035,182.8 L252.835,182.8 C252.354998,180.75999 252.115,178.360014 252.115,175.6 C252.115,172.719986 252.354998,170.32001 252.835,168.4 L227.635,168.4 C227.154998,166.35999 226.915,163.960014 226.915,161.2 C226.915,158.319986 227.154998,155.92001 227.635,154 L260.035,154 C260.515002,155.92001 260.755,158.319986 260.755,161.2 C260.755,163.960014 260.515002,166.35999 260.035,168.4 L267.235,168.4 C267.715002,170.32001 267.955,172.719986 267.955,175.6 C267.955,178.360014 267.715002,180.75999 267.235,182.8 C267.715002,184.72001 267.955,187.119986 267.955,190 C267.955,192.760014 267.715002,195.15999 267.235,197.2 C267.715002,199.12001 267.955,201.519986 267.955,204.4 C267.955,207.160014 267.715002,209.55999 267.235,211.6 L274.435,211.6 C274.915002,213.52001 275.155,215.919986 275.155,218.8 Z M310.165,139.6 C309.684998,137.55999 309.445,135.160014 309.445,132.4 C309.445,129.519986 309.684998,127.12001 310.165,125.2 L324.565,125.2 C325.045002,127.12001 325.285,129.519986 325.285,132.4 C325.285,135.160014 325.045002,137.55999 324.565,139.6 L310.165,139.6 Z M339.685,218.8 C339.685,221.560014 339.445002,223.95999 338.965,226 L295.765,226 C295.284998,223.95999 295.045,221.560014 295.045,218.8 C295.045,215.919986 295.284998,213.52001 295.765,211.6 L310.165,211.6 C309.684998,209.55999 309.445,207.160014 309.445,204.4 C309.445,201.519986 309.684998,199.12001 310.165,197.2 C309.684998,195.15999 309.445,192.760014 309.445,190 C309.445,187.119986 309.684998,184.72001 310.165,182.8 C309.684998,180.75999 309.445,178.360014 309.445,175.6 C309.445,172.719986 309.684998,170.32001 310.165,168.4 L299.365,168.4 C298.884998,166.35999 298.645,163.960014 298.645,161.2 C298.645,158.319986 298.884998,155.92001 299.365,154 L324.565,154 C325.045002,155.92001 325.285,158.319986 325.285,161.2 C325.285,163.960014 325.045002,166.35999 324.565,168.4 C325.045002,170.32001 325.285,172.719986 325.285,175.6 C325.285,178.360014 325.045002,180.75999 324.565,182.8 C325.045002,184.72001 325.285,187.119986 325.285,190 C325.285,192.760014 325.045002,195.15999 324.565,197.2 C325.045002,199.12001 325.285,201.519986 325.285,204.4 C325.285,207.160014 325.045002,209.55999 324.565,211.6 L338.965,211.6 C339.445002,213.52001 339.685,215.919986 339.685,218.8 Z M417.895,197.2 C418.375002,199.12001 418.615,201.519986 418.615,204.4 C418.615,207.160014 418.375002,209.55999 417.895,211.6 L410.695,211.6 C411.175002,213.52001 411.415,215.919986 411.415,218.8 C411.415,221.560014 411.175002,223.95999 410.695,226 L374.695,226 C374.214998,223.95999 373.975,221.560014 373.975,218.8 C373.975,215.919986 374.214998,213.52001 374.695,211.6 L367.495,211.6 C367.014998,209.55999 366.775,207.160014 366.775,204.4 C366.775,201.519986 367.014998,199.12001 367.495,197.2 L360.295,197.2 C359.814998,195.15999 359.575,192.760014 359.575,190 C359.575,187.119986 359.814998,184.72001 360.295,182.8 L367.495,182.8 C367.014998,180.75999 366.775,178.360014 366.775,175.6 C366.775,172.719986 367.014998,170.32001 367.495,168.4 L374.695,168.4 C374.214998,166.35999 373.975,163.960014 373.975,161.2 C373.975,158.319986 374.214998,155.92001 374.695,154 L410.695,154 C411.175002,155.92001 411.415,158.319986 411.415,161.2 C411.415,163.960014 411.175002,166.35999 410.695,168.4 L417.895,168.4 C418.375002,170.32001 418.615,172.719986 418.615,175.6 C418.615,178.360014 418.375002,180.75999 417.895,182.8 L403.495,182.8 C403.014998,180.75999 402.775,178.360014 402.775,175.6 C402.775,172.719986 403.014998,170.32001 403.495,168.4 L381.895,168.4 C382.375002,170.32001 382.615,172.719986 382.615,175.6 C382.615,178.360014 382.375002,180.75999 381.895,182.8 L374.695,182.8 C375.175002,184.72001 375.415,187.119986 375.415,190 C375.415,192.760014 375.175002,195.15999 374.695,197.2 L381.895,197.2 C382.375002,199.12001 382.615,201.519986 382.615,204.4 C382.615,207.160014 382.375002,209.55999 381.895,211.6 L403.495,211.6 C403.014998,209.55999 402.775,207.160014 402.775,204.4 C402.775,201.519986 403.014998,199.12001 403.495,197.2 L417.895,197.2 Z M490.345,218.8 C490.345,221.560014 490.105002,223.95999 489.625,226 L475.225,226 C474.744998,223.95999 474.505,221.560014 474.505,218.8 C474.505,215.919986 474.744998,213.52001 475.225,211.6 L468.025,211.6 C467.544998,209.55999 467.305,207.160014 467.305,204.4 C467.305,201.519986 467.544998,199.12001 468.025,197.2 L446.425,197.2 C446.905002,199.12001 447.145,201.519986 447.145,204.4 C447.145,207.160014 446.905002,209.55999 446.425,211.6 L468.025,211.6 C468.505002,213.52001 468.745,215.919986 468.745,218.8 C468.745,221.560014 468.505002,223.95999 468.025,226 L439.225,226 C438.744998,223.95999 438.505,221.560014 438.505,218.8 C438.505,215.919986 438.744998,213.52001 439.225,211.6 L432.025,211.6 C431.544998,209.55999 431.305,207.160014 431.305,204.4 C431.305,201.519986 431.544998,199.12001 432.025,197.2 L439.225,197.2 C438.744998,195.15999 438.505,192.760014 438.505,190 C438.505,187.119986 438.744998,184.72001 439.225,182.8 L468.025,182.8 C467.544998,180.75999 467.305,178.360014 467.305,175.6 C467.305,172.719986 467.544998,170.32001 468.025,168.4 L442.825,168.4 C442.344998,166.35999 442.105,163.960014 442.105,161.2 C442.105,158.319986 442.344998,155.92001 442.825,154 L475.225,154 C475.705002,155.92001 475.945,158.319986 475.945,161.2 C475.945,163.960014 475.705002,166.35999 475.225,168.4 L482.425,168.4 C482.905002,170.32001 483.145,172.719986 483.145,175.6 C483.145,178.360014 482.905002,180.75999 482.425,182.8 C482.905002,184.72001 483.145,187.119986 483.145,190 C483.145,192.760014 482.905002,195.15999 482.425,197.2 C482.905002,199.12001 483.145,201.519986 483.145,204.4 C483.145,207.160014 482.905002,209.55999 482.425,211.6 L489.625,211.6 C490.105002,213.52001 490.345,215.919986 490.345,218.8 Z" id="Little-Jamaica" fill="#FFFFFF"></path>
    </g>
</svg>